<svg xmlns="http://www.w3.org/2000/svg" version="1.1" xmlns:xlink="http://www.w3.org/1999/xlink" xmlns:svgjs="http://svgjs.dev/svgjs" width="1440" height="560" preserveAspectRatio="none" viewBox="0 0 1440 560"><g mask="url(&quot;#SvgjsMask1010&quot;)" fill="none"><rect width="1440" height="560" x="0" y="0" fill="rgba(24, 94, 165, 1)"></rect><path d="M 0,227 C 57.6,206.2 172.8,127.8 288,123 C 403.2,118.2 460.8,200.8 576,203 C 691.2,205.2 748.8,130.8 864,134 C 979.2,137.2 1036.8,221.4 1152,219 C 1267.2,216.6 1382.4,141.4 1440,122L1440 560L0 560z" fill="rgba(51, 106, 163, 1)"></path><path d="M 0,458 C 96,435.6 288,338.2 480,346 C 672,353.8 768,501.6 960,497 C 1152,492.4 1344,357.8 1440,323L1440 560L0 560z" fill="rgba(77, 120, 166, 1)"></path></g><defs><mask id="SvgjsMask1010"><rect width="1440" height="560" fill="#ffffff"></rect></mask></defs></svg>